inDegrees=no
num_controls=7
num_derivatives=13
num_iterations=77
num_multipliers=7
num_parameters=0
num_slacks=7
num_states=26
objective=0.470112
objective_accelerations=0.061271
objective_balance=0.002048
objective_effort=0.020005
objective_height=0.377212
objective_ligament=0.009576
solver_duration=1051.619440
status=Solve_Succeeded
success=true
DataType=double
version=3
OpenSimVersion=4.5
endheader
time	/jointset/ground_pelvis/pelvis_tilt/value	/jointset/ground_pelvis/pelvis_tx/value	/jointset/ground_pelvis/pelvis_ty/value	/jointset/hip_l/hip_flexion_l/value	/jointset/hip_l/hip_adduction_l/value	/jointset/hip_l/hip_rotation_l/value	/jointset/back/lumbar_extension/value	/jointset/patellofemoral_l/patellar_flexion_l/value	/jointset/knee_l/knee_flexion_l/value	/jointset/knee_l/knee_adduction_l/value	/jointset/knee_l/knee_rotation_l/value	/jointset/ankle_l/ankle_angle_l/value	/jointset/subtalar_l/subtalar_angle_l/value	/jointset/ground_pelvis/pelvis_tilt/speed	/jointset/ground_pelvis/pelvis_tx/speed	/jointset/ground_pelvis/pelvis_ty/speed	/jointset/hip_l/hip_flexion_l/speed	/jointset/hip_l/hip_adduction_l/speed	/jointset/hip_l/hip_rotation_l/speed	/jointset/back/lumbar_extension/speed	/jointset/patellofemoral_l/patellar_flexion_l/speed	/jointset/knee_l/knee_flexion_l/speed	/jointset/knee_l/knee_adduction_l/speed	/jointset/knee_l/knee_rotation_l/speed	/jointset/ankle_l/ankle_angle_l/speed	/jointset/subtalar_l/subtalar_angle_l/speed	/forceset/tau_hip_flexion_l	/forceset/tau_hip_adduction_l	/forceset/tau_hip_rotation_l	/forceset/tau_knee_flexion_l	/forceset/tau_ankle_angle_l	/forceset/tau_subtalar_angle_l	/forceset/tau_lumbar_extension	lambda_cid13_p0	lambda_cid13_p1	lambda_cid13_p2	lambda_cid13_p3	lambda_cid13_p4	lambda_cid13_p5	lambda_cid14_p0	/jointset/ground_pelvis/pelvis_tilt/accel	/jointset/ground_pelvis/pelvis_tx/accel	/jointset/ground_pelvis/pelvis_ty/accel	/jointset/hip_l/hip_flexion_l/accel	/jointset/hip_l/hip_adduction_l/accel	/jointset/hip_l/hip_rotation_l/accel	/jointset/back/lumbar_extension/accel	/jointset/patellofemoral_l/patellar_flexion_l/accel	/jointset/knee_l/knee_flexion_l/accel	/jointset/knee_l/knee_adduction_l/accel	/jointset/knee_l/knee_rotation_l/accel	/jointset/ankle_l/ankle_angle_l/accel	/jointset/subtalar_l/subtalar_angle_l/accel	gamma_cid13_p0	gamma_cid13_p1	gamma_cid13_p2	gamma_cid13_p3	gamma_cid13_p4	gamma_cid13_p5	gamma_cid14_p0
1.5	-0.5514470447995408	-0.03980869521456821	0.7925098969383777	1.19223469091181	-0.3499028978676438	-0.1173391162026215	-0.3413500208439234	0.5595800920010038	0.5595800920009906	-0.06558306737663207	-0.1741286115594338	0.01266494428824338	0.07594444913824415	1.058115376588666	0.4878051906849196	0.4611520726085165	-2.76734425518384	0.002037324348254428	-0.5145537433148941	0.5844063352545513	-1.520960907265417	-1.52096090726535	-0.2017832129843767	0.007677156458443372	0.08043826823233517	0.03187238906775014	-0.2030861884574469	0.03122985635235649	0.008710328537588741	-0.06673686507851981	0.04271007392763179	-0.007322410128627118	0.1665042037276603	-11.25911591136848	2.509569750657752	2.336629586922155	-8.486776627336392	-433.2809055588754	-47.53878763210375	-20.42835873801031	0.8621566757808491	0.8973423991381231	-0.5554610482078702	-1.873025425532326	0.2485263352733766	-0.0008752378548689474	1.89658094381781	-0.5858002985747486	-0.585800298574748	-0.4200790378854926	0.4054053722239266	0.394488433204672	0.3720413059754168	8.057982343205978e-08	1.161975874617037e-06	-6.987793746492303e-07	2.097852477724008e-07	3.786979655658343e-07	-1.452251677005292e-07	3.024346098088556e-07
1.51	-0.5408235074065144	-0.0348862876867118	0.7970927234511357	1.164469598552434	-0.349871811163094	-0.1224844816255319	-0.3354130183337827	0.5443424836205236	0.5443424836200899	-0.06762492900292183	-0.1740328014851315	0.01348848104805455	0.07627986100427475	1.066410931453034	0.4966109741483152	0.4553129842672857	-2.785303439090778	0.004170712605754063	-0.5144457404860618	0.6029182688866146	-1.526396808448247	-1.526396808448183	-0.2065917346057571	0.011525368028383	0.08425250831929902	0.03519586872633745	-0.1962385628840146	0.03026719265482923	0.009023805926750627	-0.06532506899837526	0.03989468464955202	-0.008113876539700393	0.1614410887135155	-12.01346379241557	2.810891090133185	2.487903788840362	-7.831363537001794	-429.5348096943769	-47.40839799979829	-20.91809608055513	0.7861160013406684	0.862429755627358	-0.6130741123366199	-1.701702996277625	0.1942812026004068	0.0279410909216659	1.817114889197833	-0.4979540824797563	-0.4979540824802624	-0.5114917500483834	0.3803760716668673	0.3724315848185628	0.3103425732813439	1.031152860219909e-07	1.051145716354638e-06	-8.807454461809294e-07	1.85327376424955e-07	4.437947224518048e-07	-1.225137018386439e-07	3.111163558423713e-07
1.52	-0.5301224422428976	-0.02987777563708309	0.8016141708034291	1.136536046729374	-0.349819683349646	-0.127626506410707	-0.3292931734240672	0.5290554224169182	0.5290554224168752	-0.06971492644927513	-0.1738973398913921	0.01434966816641308	0.07664807592238719	1.07362093070045	0.5050260950393792	0.4488762405160417	-2.801036147917818	0.006245546127818777	-0.5138856157505056	0.620974815170573	-1.530851471804781	-1.530851471804719	-0.2114103772585544	0.01560746048988052	0.08796833994131951	0.03843299948415359	-0.1893909373110503	0.02930452895691382	0.009337283320877172	-0.06391327291848242	0.03707929537135354	-0.008905342951262083	0.1563779736989917	-12.77157694304162	3.112635584370769	2.639380895730359	-7.172218063613625	-425.848036017469	-47.34215964874829	-21.38511760774165	0.6450455523904975	0.819209884672074	-0.6749921302104507	-1.427730409552972	0.2368153881861364	0.08954914348989224	1.805503474196916	-0.3895527333155834	-0.3895527333155869	-0.42210324416886	0.4521815505356648	0.3748067402163708	0.3547715258213279	1.035548418773584e-07	1.062884823025233e-06	-8.907149753551889e-07	1.824603178365148e-07	4.921400332993122e-07	-9.9377353825962e-08	3.107794694932143e-07
1.53	-0.5193548061695562	-0.02478728015497607	0.8060683160049708	1.108456866056164	-0.3497459478453804	-0.1327653158195195	-0.3229954627284098	0.5137290668240291	0.5137290668239697	-0.0718489689673051	-0.1737232980366303	0.01524771582808671	0.07704952618299578	1.079705237316768	0.5129846437387364	0.4418554025172607	-2.814342818789487	0.0085990408216387	-0.5141725376551473	0.6384584292978062	-1.534196870478398	-1.534196870478384	-0.2150449408471924	0.01895343032446315	0.0916499594178446	0.04196500817702751	-0.182490271563301	0.0284863319352919	0.009599895984729961	-0.0623592094746001	0.03398839072124824	-0.009953568595158661	0.151176125622161	-13.63782731282429	3.532824538000953	2.785681568328108	-6.336447780791797	-422.1578064221212	-47.06107615505416	-21.82763493718971	0.5599947249453512	0.7709663728320297	-0.7301314176907948	-1.213522366535439	0.2490807795092561	-0.132014866617245	1.703456181843089	-0.2736761002572088	-0.2736761002644925	-0.2809442017593192	0.2385066226228613	0.366188078280089	0.3684812166513781	8.051749682725252e-08	1.204853773687131e-06	-7.179381782746707e-07	2.025334978045178e-07	5.226869327309526e-07	-7.578956852805852e-08	3.008602862374676e-07
1.54	-0.5085323527282961	-0.01961984138382199	0.8104493524699279	1.080258341286127	-0.349645784540274	-0.1379158348491937	-0.3165261827315112	0.4983759287112047	0.4983759287111745	-0.0740087193784154	-0.1735232560989484	0.0161828493899082	0.07748950966565937	1.084584404280765	0.5204147528487871	0.4342544931995226	-2.824904967283639	0.01153110629661171	-0.5162275399268209	0.6552886754193067	-1.536207975786915	-1.536207975786949	-0.2165519558577486	0.02080747706718295	0.09538551997075444	0.04613964389514175	-0.1755896058156217	0.02766813491375045	0.009862508648394559	-0.06080514603067037	0.03089748607119441	-0.01100179423895181	0.1459742775452066	-14.50712859624247	3.953875235726005	2.931470386803075	-5.497165080067592	-418.5131540353845	-46.83513109295266	-22.24680197987913	0.4040176219260763	0.7135219668110807	-0.7910063940017711	-0.8788259340496959	0.3525295444167722	-0.2640669299164511	1.674829873050434	-0.1226940602958264	-0.1226940602958257	0.003406471447468033	0.1537969321632202	0.3855949554936609	0.4832969308695054	5.662762664457676e-08	1.41363085330325e-06	-5.517784821068813e-07	2.309933530318538e-07	5.284092640267563e-07	-4.744472430060382e-08	3.011833686840112e-07
1.55	-0.4976672880422592	-0.01438082557613368	0.8147516084670844	1.051967543711678	-0.3495141669597739	-0.1430930974863468	-0.3098921173440212	0.4830085277259916	0.4830085277261222	-0.07617595516100147	-0.1733102556991169	0.01715498789423123	0.07797346303108471	1.088213210734181	0.5272918225012209	0.4261107169971633	-2.832832211834706	0.0148003848447155	-0.519135922779319	0.6713898105979649	-1.537133522313781	-1.537133522313792	-0.2168934731331333	0.02184456184207311	0.09898671383243275	0.05064387158305225	-0.168578315078081	0.02635313834932479	0.01011132498230344	-0.05968656383087117	0.02825389427825041	-0.01202339914637955	0.1406698379385014	-15.25041734108103	4.35900056912395	3.059580452859827	-4.685929275443659	-415.1667137938583	-46.73434522443176	-22.64241030208639	0.3100338307001655	0.6603695960312408	-0.8388630547228206	-0.6862956340373136	0.3150371307619649	-0.2906225735562218	1.557566617508349	-0.05674411920612105	-0.05674411920259102	-0.05234048952349164	0.08631842060717365	0.3391111182448766	0.4326559858049531	3.175549924394013e-08	1.699382516279663e-06	-3.932428369907136e-07	2.691161167101598e-07	5.055293755138802e-07	-1.361892087170997e-08	3.133073224831927e-07
1.56	-0.4867723909569612	-0.009075925045605972	0.8189698667379419	1.023610149308042	-0.3493496745696371	-0.1482967236741101	-0.3031010783493012	0.4676360194416244	0.4676360194416007	-0.07834648804955814	-0.1730853536170479	0.01816148424051791	0.07850219273300031	1.090550884133605	0.5335916974166641	0.4174549479400663	-2.838224333121878	0.01810606822295865	-0.521500250057373	0.6866833968660201	-1.537229435653622	-1.537229435653612	-0.2172113769081731	0.02318781343516145	0.1022570883637077	0.05509491119309379	-0.1615670243404366	0.02503814178513079	0.01036014131369272	-0.05856798163089319	0.02561030248540095	-0.01304500405351279	0.1353653983317961	-15.99626529837537	4.765388676163528	3.186559258087433	-3.868105967529819	-411.8539894458252	-46.67828294565046	-23.01414748044072	0.1457910111274702	0.5980830194132045	-0.8934049649492296	-0.371801281270846	0.359810510444826	-0.1552558150275386	1.51332009092973	0.04323257710876362	0.04323257710876382	0.008129171516443049	0.2150302958029443	0.3194310894132433	0.4726593152958035	1.524222058186112e-08	1.856155431989807e-06	-3.095566277858562e-07	2.870197242530062e-07	5.048537751462804e-07	2.09824260836927e-08	3.168652940411554e-07
1.57	-0.4758603436491495	-0.003711016910911002	0.8230990556017344	0.9952117522754156	-0.3491516175166907	-0.1535207339802608	-0.2961612703611184	0.4522672537296033	0.4522672537295855	-0.08051945820078064	-0.172844902025255	0.01919931005789202	0.07907557694417836	1.091658769526644	0.5392822140691875	0.4083004974561399	-2.840989030160974	0.02153420309310267	-0.5231588431875083	0.7011370581068073	-1.53631306476587	-1.536313064765867	-0.217322873059258	0.02499689853518721	0.1052852479676059	0.0596054908682271	-0.1549322262863736	0.02390740286734701	0.01058024237895636	-0.05703827752505778	0.02246120682465017	-0.01422268362282074	0.1302937237687152	-16.92707090105763	5.253543701311375	3.321519787970429	-2.911479163828999	-408.7636649533661	-46.43939553189853	-23.3617734888886	0.06333086519250454	0.5384337518499284	-0.9387046893611322	-0.1588739804278517	0.3383613551879438	-0.1494836229045365	1.390217740433901	0.1473745214234939	0.1473745214227501	-0.01149798009640021	0.1778655468294771	0.291130300830249	0.4435393314482317	9.177502842979037e-09	1.851704913617114e-06	-3.194322134701357e-07	2.796493866265281e-07	5.319335349602758e-07	5.655320244723139e-08	3.097157877975945e-07
1.58	-0.4649432087750701	0.001707575943046027	0.8271342520408359	0.9667996942593621	-0.3489184698390542	-0.1587569947298534	-0.2890811600405779	0.4369139587618765	0.4369139587617597	-0.08269168510825625	-0.1725835559963216	0.02026674185229277	0.07969472335967392	1.091568397391741	0.544328641269076	0.3986564630022139	-2.840956529808004	0.02512419315874349	-0.5239503387535501	0.714743863338825	-1.534135286805538	-1.534135286805542	-0.2170627280773348	0.02736670082429759	0.1081782837695782	0.0642473520564118	-0.1482974282321144	0.02277666394983116	0.01080034344304876	-0.0555085734191658	0.01931211116394608	-0.01540036319182626	0.1252220492057416	-17.86031763963237	5.743560788446928	3.45454577672247	-1.948712603476617	-405.7039838591021	-46.24010004578409	-23.68522899244319	-0.09386049446123347	0.4692651288863946	-0.9913217589491214	0.1876381971422473	0.3921815495443683	0.01816369779121774	1.343948889175512	0.295513991624825	0.2955139916248096	0.0824573981181257	0.3271737336199199	0.2924063290282581	0.4989156179061694	1.397762346314919e-09	1.871389180564885e-06	-3.139455440215418e-07	2.764731626951206e-07	5.537038705487935e-07	9.120552187053169e-08	3.040473485831225e-07
